<svg xmlns="http://www.w3.org/2000/svg" xmlns:xlink="http://www.w3.org/1999/xlink" width="70" height="70" viewBox="0 0 70 70">
  <defs>
 
    <clipPath id="clip-hq">
      <rect width="70" height="70"/>
    </clipPath>
  </defs>
  <g id="hq" clip-path="url(#clip-hq)">
    <rect width="70" height="70" fill="#fff"/>
    <g id="Group_1197" data-name="Group 1197" transform="translate(1 1)">
      <path id="Path_194" data-name="Path 194" d="M88.809,61.334a1.328,1.328,0,0,0-.622,2.582,23.906,23.906,0,1,1-11.248,0,1.328,1.328,0,0,0-.622-2.582A26.69,26.69,0,0,0,61.788,70.6,26.276,26.276,0,0,0,56,87.156a26.562,26.562,0,1,0,53.125,0A26.275,26.275,0,0,0,103.338,70.6,26.691,26.691,0,0,0,88.809,61.334Z" transform="translate(-48.563 -53.156)" fill="#ad877a"/>
      <path id="Path_195" data-name="Path 195" d="M67.2,30.805l-1.554-2.9.259-3.584a6.779,6.779,0,0,0-2.454-6L60.871,16.21l-1.015-3.056a6.826,6.826,0,0,0-4.646-4.911l-3.184-.962L49.589,4.463A6.8,6.8,0,0,0,43.748,2.1l-3.3.329L37.2.8A6.776,6.776,0,0,0,30.8.8l-2.9,1.554-3.584-.259a6.778,6.778,0,0,0-6,2.454L16.209,7.128,13.153,8.143a6.826,6.826,0,0,0-4.911,4.645l-.962,3.184L4.463,18.41A6.8,6.8,0,0,0,2.1,24.252l.329,3.3L.8,30.8a6.776,6.776,0,0,0,0,6.39l1.554,2.9-.259,3.584a6.78,6.78,0,0,0,2.454,6L7.128,51.79l1.015,3.056a6.826,6.826,0,0,0,4.646,4.911l3.183.962,2.438,2.818A6.8,6.8,0,0,0,24.251,65.9l3.3-.329L30.8,67.2a6.776,6.776,0,0,0,6.391,0l2.9-1.554,3.584.259a6.781,6.781,0,0,0,6-2.454l2.112-2.579,3.056-1.014a6.826,6.826,0,0,0,4.91-4.646l.962-3.183,2.818-2.438A6.8,6.8,0,0,0,65.9,43.748l-.329-3.3L67.2,37.2a6.777,6.777,0,0,0,0-6.391Zm-2.35,5.151-.017.033L63.022,39.6a1.329,1.329,0,0,0-.135.727l.367,3.686a4.144,4.144,0,0,1-1.448,3.563l-3.118,2.7a1.327,1.327,0,0,0-.4.62l-1.073,3.552a4.163,4.163,0,0,1-3.033,2.842c-.039.009-.078.02-.117.033l-3.476,1.154a1.328,1.328,0,0,0-.609.419l-2.356,2.877a4.134,4.134,0,0,1-3.676,1.494l-.053,0L39.9,62.969a1.328,1.328,0,0,0-.723.154l-3.236,1.734a4.124,4.124,0,0,1-3.9-.008l-.033-.017L28.4,63.023a1.329,1.329,0,0,0-.6-.141q-.066,0-.132.007l-3.686.367a4.143,4.143,0,0,1-3.563-1.448l-2.7-3.118a1.327,1.327,0,0,0-.62-.4l-3.552-1.073a4.162,4.162,0,0,1-2.842-3.033q-.014-.059-.033-.117L9.528,50.588a1.327,1.327,0,0,0-.419-.609L6.231,47.623a4.134,4.134,0,0,1-1.494-3.676c0-.018,0-.035,0-.053L5.031,39.9a1.328,1.328,0,0,0-.154-.723L3.142,35.942a4.124,4.124,0,0,1,.007-3.9l.017-.033L4.976,28.4a1.328,1.328,0,0,0,.134-.727L4.744,23.99a4.144,4.144,0,0,1,1.448-3.563l3.118-2.7a1.329,1.329,0,0,0,.4-.62l1.073-3.552a4.163,4.163,0,0,1,3.033-2.842q.059-.014.117-.033l3.476-1.154a1.327,1.327,0,0,0,.609-.419l2.356-2.877a4.135,4.135,0,0,1,3.676-1.494l.053,0,3.993.289a1.333,1.333,0,0,0,.723-.154l3.236-1.734a4.124,4.124,0,0,1,3.9.007l.033.017L39.6,4.977a1.326,1.326,0,0,0,.727.134l3.686-.367a4.143,4.143,0,0,1,3.563,1.448l2.7,3.118a1.328,1.328,0,0,0,.62.4l3.552,1.073a4.163,4.163,0,0,1,2.842,3.033q.014.059.033.117l1.154,3.476a1.328,1.328,0,0,0,.419.609l2.877,2.356a4.133,4.133,0,0,1,1.494,3.676c0,.018,0,.035,0,.053L62.968,28.1a1.329,1.329,0,0,0,.154.723l1.734,3.236a4.124,4.124,0,0,1-.007,3.9Z" transform="translate(0.001 0)" fill="#ad877a"/>
      <path id="Path_196" data-name="Path 196" d="M150.281,113.652a1.327,1.327,0,0,0-1.2-.76h-7.017a1.328,1.328,0,0,0-1.328,1.328v20.1a1.328,1.328,0,0,0,1.328,1.328h7.017a1.328,1.328,0,0,0,1.224-.812,25.171,25.171,0,0,1,3.141.731,19.1,19.1,0,0,0,5.074.919h7.667a5.327,5.327,0,0,0,5.138-3.361,4.766,4.766,0,0,0,.244-2.981,4.792,4.792,0,0,0,1.1-1.466,5.06,5.06,0,0,0,.362-3.587,4.972,4.972,0,0,0,1.31-4.672,4,4,0,0,0,.764-6.363,4.153,4.153,0,0,0-2.881-1.134H161.412a3.607,3.607,0,0,1-.609-3.553,6.9,6.9,0,0,0-.192-6.337c-.811-1.539-2.991-3.072-4.824-2.81a2.514,2.514,0,0,0-2.144,2.095,7.765,7.765,0,0,0-.11,1.13,9.385,9.385,0,0,1-1.032,4.213,11.193,11.193,0,0,0-1,3.447C151.244,112.635,151.119,113.37,150.281,113.652Zm-6.888,1.9h4.361v17.447h-4.361Zm10.729-4a8.988,8.988,0,0,1,.733-2.661,12.038,12.038,0,0,0,1.33-5.3,6.673,6.673,0,0,1,.06-.738v0a3.114,3.114,0,0,1,2.015,1.426,4.241,4.241,0,0,1,.09,4.08,6.129,6.129,0,0,0,.038,4.586,1.327,1.327,0,0,0,.184,2.642h13.646a1.509,1.509,0,0,1,1.049.4,1.353,1.353,0,0,1,.416,1.012,1.43,1.43,0,0,1-1.426,1.345l-3.418.074a1.328,1.328,0,0,0,.028,2.656h.029l2.847-.062a2.16,2.16,0,0,1-.054,1.34,1.778,1.778,0,0,1-1.737,1.309,1.328,1.328,0,0,0,0,2.656,4.7,4.7,0,0,0,.592-.037,2.6,2.6,0,0,1-.267,1.238,1.777,1.777,0,0,1-1.637,1.093,1.328,1.328,0,1,0,0,2.656q.206,0,.408-.018a2.506,2.506,0,0,1-.2.922,2.711,2.711,0,0,1-2.661,1.667h-7.667a16.885,16.885,0,0,1-4.365-.823,25.517,25.517,0,0,0-3.746-.836V116.34C153.4,115.8,153.812,113.377,154.121,111.552Z" transform="translate(-122.045 -86.888)" fill="#ad877a"/>
      <path id="Path_197" data-name="Path 197" d="M247.328,58.657a1.328,1.328,0,1,0,0-2.656h0a1.328,1.328,0,0,0,0,2.656Z" transform="translate(-213.327 -48.563)" fill="#ad877a"/>
    </g>
  </g>
</svg>
