<svg xmlns="http://www.w3.org/2000/svg" xmlns:xlink="http://www.w3.org/1999/xlink" width="70" height="70" viewBox="0 0 70 70">
  <defs>
    <clipPath id="clip-mfd">
      <rect width="70" height="70"/>
    </clipPath>
  </defs>
  <g id="mfd" clip-path="url(#clip-mfd)">
    <rect width="70" height="70" fill="#fff"/>
    <path id="_07_modern_functional_design" data-name="07 modern &amp; functional design" d="M101.53,63.229a1.071,1.071,0,0,0,1.07-1.07V54.587a1.071,1.071,0,0,0-1.07-1.07H93.807V45.67a1.071,1.071,0,0,0-1.07-1.07H85.151a1.071,1.071,0,0,0-1.07,1.07v7.847H78.648V45.67a1.071,1.071,0,0,0-1.07-1.07H69.759a1.071,1.071,0,0,0-1.07,1.07v7.847H63.353V45.67a1.071,1.071,0,0,0-1.07-1.07H54.614a1.071,1.071,0,0,0-1.07,1.07v2.716a1.07,1.07,0,1,0,2.14,0V46.74h5.528V68.607H55.684V51.637a1.07,1.07,0,1,0-2.14,0v1.879H45.67a1.071,1.071,0,0,0-1.07,1.07v7.572a1.071,1.071,0,0,0,1.07,1.07h7.874V68.8H45.67a1.071,1.071,0,0,0-1.07,1.07v7.655a1.071,1.071,0,0,0,1.07,1.07h7.874v5.364H45.67a1.071,1.071,0,0,0-1.07,1.07v7.7a1.071,1.071,0,0,0,1.07,1.07h7.874v7.737a1.071,1.071,0,0,0,1.07,1.07h7.668a1.071,1.071,0,0,0,1.07-1.07V93.793h5.336v7.737a1.071,1.071,0,0,0,1.07,1.07h7.819a1.071,1.071,0,0,0,1.07-1.07V93.793h5.432v7.737a1.071,1.071,0,0,0,1.07,1.07h7.586a1.071,1.071,0,0,0,1.07-1.07V93.793h7.723a1.071,1.071,0,0,0,1.07-1.07v-7.7a1.071,1.071,0,0,0-1.07-1.07H93.807V78.593h7.723a1.071,1.071,0,0,0,1.07-1.07V69.869a1.071,1.071,0,0,0-1.07-1.07H93.807v-5.57Zm-1.07-7.572v5.432H93.807V55.657h6.653ZM78.511,68.8v-5.57h5.57V68.8Zm5.57,15.158h-5.57V78.593h5.57Zm-13.252,0V63.229h5.542V83.957Zm-7.476,0V78.593h5.336v5.364ZM70.829,46.74h5.679v6.777H70.829Zm13.252,8.917v5.432H63.353V55.657H84.081ZM46.74,61.089V55.657h6.8v5.432Zm16.613,2.14h5.336V68.8H63.353ZM46.74,70.939H68.689v5.515H46.74V70.939Zm0,20.714V86.1h6.8v5.556Zm14.473,8.807H55.684V78.593h5.528Zm15.3,0H70.829V93.793h5.679ZM63.353,91.653V86.1H84.081v5.556ZM100.46,86.1v5.556H93.807V86.1Zm0-9.644H90.446a1.07,1.07,0,0,0,0,2.14h1.221V100.46H86.221V78.593h1.221a1.07,1.07,0,1,0,0-2.14h-8.93V70.939H100.46ZM86.221,68.8V46.74h5.446V68.8Z" transform="translate(-38.6 -38.6)" fill="#ad877a"/>
  </g>
</svg>
