<svg xmlns="http://www.w3.org/2000/svg" xmlns:xlink="http://www.w3.org/1999/xlink" width="70" height="70" viewBox="0 0 70 70">
  <defs>
    <clipPath id="clip-sip">
      <rect width="70" height="70"/>
    </clipPath>
  </defs>
  <g id="sip" clip-path="url(#clip-sip)">
    <rect width="70" height="70" fill="#fff"/>
    <g id="Group_1198" data-name="Group 1198" transform="translate(1 13)">
      <path id="Path_198" data-name="Path 198" d="M67.924,113.8l-6.389-18.2a1.328,1.328,0,0,0-1.514-.862l-6.654,1.331-11.7-3.479a6.618,6.618,0,0,0-5.624.4l-2.084,1.2-2.085-1.2a6.618,6.618,0,0,0-5.624-.4L14.6,96.051l-6.051-1.6a1.328,1.328,0,0,0-1.581.815L.085,113.51a1.328,1.328,0,0,0,.579,1.619l5.721,3.3a4.6,4.6,0,0,0,4.606,6.4,4.6,4.6,0,0,0,6.515,4.083,4.593,4.593,0,0,0,5.442,2.682,4.66,4.66,0,0,0,.994-.392,4.595,4.595,0,0,0,4.16,2.653,4.629,4.629,0,0,0,3.034-1.135l4.037,2.331a4.6,4.6,0,0,0,6.89-3.615,4.6,4.6,0,0,0,6.483-4.223,4.6,4.6,0,0,0,5.141-4.258,4.6,4.6,0,0,0,6.119-4.729l7.33-2.747a1.328,1.328,0,0,0,.787-1.683ZM9.642,121.932a1.957,1.957,0,0,1-.713-2.661l1.854-3.212A1.948,1.948,0,0,1,14.159,118L12.3,121.221h0a1.951,1.951,0,0,1-2.659.711Zm7.637,3.771a1.948,1.948,0,0,1-3.374-1.948l.694-1.2h0l1.859-3.219h0l1.64-2.84a1.948,1.948,0,0,1,3.374,1.948l-.489.847,0,0h0l-3.211,5.562h0Zm6.165,2.425a1.948,1.948,0,0,1-3.375-1.945v0h0l3.21-5.56h0a1.948,1.948,0,0,1,3.374,1.948l-.678,1.175h0l-1.854,3.211h0l0,0Zm3.692,2.813a1.957,1.957,0,0,1-.713-2.661l1.854-3.212a1.948,1.948,0,1,1,3.374,1.948L29.8,130.228A1.95,1.95,0,0,1,27.136,130.941Zm12.027,1.1a1.95,1.95,0,0,1-2.661.713l-3.822-2.207,1.271-2.2a4.591,4.591,0,0,0,.5-1.273l4,2.308h0l0,0a1.95,1.95,0,0,1,.708,2.658ZM58.83,115.758a4.581,4.581,0,0,0-1.307-1.129c-.486-.28-2.251-1.341-5.4-3.243a1.328,1.328,0,1,0-1.374,2.273c3.161,1.912,4.942,2.981,5.443,3.271a1.948,1.948,0,0,1-1.948,3.374L51.4,118.66h0l-10.569-6.1a1.328,1.328,0,1,0-1.328,2.3l10.568,6.1h0l0,0a1.948,1.948,0,0,1-1.952,3.371l-1.87-1.08,0,0h0l-9.279-5.357a1.328,1.328,0,0,0-1.328,2.3l9.278,5.357h0a1.948,1.948,0,0,1-1.948,3.373l-3.187-1.84,0,0h0L33.926,123.7a4.592,4.592,0,0,0-4.356-2.244,4.662,4.662,0,0,0-.157-1.056,4.593,4.593,0,0,0-5.045-3.372,4.686,4.686,0,0,0-.138-.755,4.6,4.6,0,0,0-7.938-1.807,4.608,4.608,0,0,0-7.808.265l-.8,1.383-4.716-2.723L9.029,97.329l5.253,1.385A1.33,1.33,0,0,0,15,98.7L27.011,95.13a4.014,4.014,0,0,1,3.538.158l.756.437-4.653,2.686a4.643,4.643,0,0,0-1.7,6.335,4.706,4.706,0,0,0,6.259,1.738c1.253-.619,3.077-1.439,4.451-1.962,1,.6,3.253,1.968,4.86,2.942a1.328,1.328,0,0,0,1.377-2.272l-3.86-2.338-1.138-.687c-.588-.354-.728-.438-1.1-.438a1.328,1.328,0,0,0-.437.074,55.154,55.154,0,0,0-5.327,2.3,2.081,2.081,0,0,1-2.782-.685,1.984,1.984,0,0,1,.725-2.707l9.394-5.423a4.014,4.014,0,0,1,3.538-.158L52.926,98.7a1.327,1.327,0,0,0,.639.029l5.846-1.17,5.576,15.887Z" transform="translate(0 -92.145)" fill="#ad877a"/>
      <path id="Path_199" data-name="Path 199" d="M340.14,212.262h0a1.328,1.328,0,1,0,1.329,1.328A1.328,1.328,0,0,0,340.139,212.262Z" transform="translate(-293.813 -196.309)" fill="#ad877a"/>
    </g>
  </g>
</svg>
